<svg width="32" height="32" viewBox="0 0 32 32" fill="none" xmlns="http://www.w3.org/2000/svg">
<circle cx="16" cy="16" r="16" fill="#FF3A3A"/>
<path fill-rule="evenodd" clip-rule="evenodd" d="M16.2709 25.3283C19.186 25.3283 22.0184 23.8001 23.4863 21.4341C25.2749 18.5527 24.8139 14.8189 22.3897 12.5545C21.4334 11.6608 20.158 11.0981 18.7934 10.966L18.7374 10.7534C18.6749 10.5164 18.6032 10.244 18.5439 10.0227C18.4732 9.76448 18.4645 9.52962 18.5189 9.34315C18.5341 9.28824 18.5586 9.23822 18.5923 9.1757C18.7184 8.94138 18.9555 8.77448 19.2256 8.7299C19.3447 8.70979 19.4698 8.71577 19.5877 8.74675C19.709 8.77937 19.8286 8.83809 19.9329 8.91638C20.0009 8.96802 20.0602 9.02946 20.1227 9.09415C20.1613 9.13384 20.1993 9.17407 20.2401 9.21104C20.4331 9.39208 20.6854 9.49156 20.9496 9.49156C21.5237 9.49156 21.9907 9.02402 21.9907 8.44992C21.9907 8.2841 21.9521 8.12481 21.8765 7.97639C21.87 7.96334 21.8629 7.95084 21.8559 7.93888L21.8428 7.91496C21.745 7.75077 21.6052 7.59311 21.4025 7.41914C21.092 7.15275 20.7158 6.94399 20.3157 6.81623C20.1276 6.75588 19.934 6.71402 19.7416 6.69227C19.3143 6.64334 18.8723 6.68847 18.4634 6.82275C16.8477 7.35662 16.0724 8.86201 16.5351 10.5685L16.6764 11.103C16.36 11.1747 16.0474 11.2704 15.7457 11.3868C14.1859 11.987 12.948 13.3216 12.5147 14.8694C12.3603 15.4207 12.3076 15.9921 12.3576 16.5678C12.4664 17.8155 13.1318 18.9773 14.1381 19.677C15.0868 20.3359 16.2225 20.53 17.3364 20.2228C18.1253 20.0048 18.8266 19.5362 19.311 18.9034C20.0765 17.903 20.3048 16.5912 19.9547 15.2081C19.8291 14.7123 19.6714 14.1627 19.5192 13.631C19.4768 13.4836 19.4344 13.3358 19.3926 13.189C19.9911 13.364 20.5337 13.669 20.9692 14.0762C22.6414 15.6382 22.9633 18.3293 21.7178 20.3364C20.6207 22.1044 18.4825 23.2472 16.2709 23.2472C12.5398 23.2472 9.50452 20.2119 9.50452 16.4808C9.50452 16.1497 9.53007 15.8148 9.58063 15.4848C9.6214 15.2206 9.67849 14.9559 9.75079 14.6976C9.82201 14.4437 9.90954 14.1915 10.0096 13.9485C10.1107 13.706 10.2259 13.4679 10.3532 13.2417C10.4782 13.0177 10.6196 12.7965 10.7734 12.5839C10.9213 12.3784 11.0871 12.1751 11.2649 11.9804C11.4399 11.7901 11.628 11.6075 11.8232 11.4384C12.0195 11.2682 12.2272 11.1084 12.4403 10.9638C12.6539 10.8181 12.8795 10.6833 13.1111 10.562C13.2378 10.4962 13.3672 10.4337 13.495 10.3772C13.5651 10.3462 13.6358 10.3163 13.7064 10.288C13.9647 10.1853 14.1675 9.98792 14.2773 9.7324C14.3871 9.47689 14.3909 9.19418 14.2882 8.93595C14.1849 8.67717 13.9875 8.47438 13.7315 8.36456C13.4765 8.25474 13.1938 8.25148 12.9355 8.35478C12.8415 8.39175 12.748 8.43143 12.6523 8.47329C12.48 8.54995 12.3098 8.63204 12.1478 8.71685C11.8471 8.87343 11.5514 9.05066 11.2687 9.24311C10.9882 9.43394 10.7163 9.6427 10.4608 9.86451C10.2037 10.0869 9.95793 10.3255 9.73122 10.574C9.5018 10.8235 9.28488 11.0894 9.08644 11.3634C8.88692 11.6396 8.70153 11.9293 8.53626 12.2251C8.36827 12.5246 8.21713 12.8367 8.08666 13.152C7.95455 13.4711 7.83984 13.8017 7.74633 14.1355C7.65227 14.4709 7.57725 14.8189 7.52288 15.169C7.45656 15.6034 7.42285 16.0448 7.42285 16.4808C7.42285 21.3596 11.3921 25.3283 16.2709 25.3283ZM17.2098 13.1184C17.3071 13.474 17.4121 13.8415 17.517 14.2068C17.6649 14.7206 17.8171 15.2512 17.9362 15.7209C18.071 16.2537 18.1319 17.0191 17.6573 17.6395C17.4469 17.9146 17.1359 18.1201 16.7814 18.2179C16.1323 18.3968 15.6305 18.1815 15.325 17.9695C14.821 17.6188 14.4867 17.0278 14.4307 16.389C14.4024 16.0634 14.4317 15.7416 14.5182 15.4328C14.7775 14.5053 15.5343 13.7001 16.4927 13.331C16.7265 13.2413 16.9674 13.1695 17.2098 13.1184Z" fill="white"/>
</svg>
